<?xml version="1.0" encoding="utf-8"?>
<!-- Generator: Adobe Illustrator 22.0.0, SVG Export Plug-In . SVG Version: 6.00 Build 0)  -->
<svg version="1.1" id="Layer_1" xmlns="http://www.w3.org/2000/svg" xmlns:xlink="http://www.w3.org/1999/xlink" x="0px" y="0px"
	 viewBox="0 0 48.6 64.5" style="enable-background:new 0 0 48.6 64.5;" xml:space="preserve">
<style type="text/css">
	.st0{display:none;}
	.st1{display:inline;}
	.st2{display:inline;fill:none;stroke:#DB2B42;stroke-miterlimit:10;}
	.st3{display:inline;fill:none;stroke:#8AD5DD;stroke-miterlimit:10;}
	.st4{display:inline;fill:none;stroke:#E0E0E0;stroke-miterlimit:10;}
	.st5{display:inline;stroke:#2D2D2D;stroke-miterlimit:10;}
	.st6{display:inline;fill:none;stroke:#000000;stroke-miterlimit:10;}
	.st7{display:inline;stroke:#8AD5DD;stroke-miterlimit:10;}
	.st8{display:inline;fill:none;stroke:#000000;stroke-width:1.4;stroke-miterlimit:10;}
</style>
<g class="st0">
	<rect x="-94.9" y="-249.8" class="st1" width="824.6" height="414.1"/>
</g>
<g class="st0">
	<circle class="st1" cx="-34.8" cy="32.2" r="32"/>
	<polyline class="st1" points="-16.1,51.4 -16.1,11.3 -50.1,11.3 -50.1,56.6 -21.3,56.6 -21.3,56.6 -16.1,51.4 	"/>
	<polygon class="st1" points="-23,54.9 -51.8,54.9 -51.8,9.5 -17.8,9.5 -17.8,49.7 	"/>
	<polygon class="st1" points="-41.2,34.4 -44.4,38.3 -45.8,37 -46.7,37.9 -44.3,40.2 -40.2,35.2 	"/>
	<polygon class="st1" points="-41.2,42 -44.4,45.9 -45.8,44.6 -46.7,45.5 -44.3,47.8 -40.2,42.8 	"/>
	<line class="st2" x1="-31.5" y1="27" x2="-31.5" y2="29.2"/>
	<line class="st3" x1="-29.5" y1="21.7" x2="-29.5" y2="29.2"/>
	<line class="st2" x1="-27.5" y1="17.8" x2="-27.5" y2="29.2"/>
	<line class="st3" x1="-25.5" y1="21.4" x2="-25.5" y2="29.2"/>
	<line class="st2" x1="-23.5" y1="25.1" x2="-23.5" y2="29.2"/>
	<line class="st4" x1="-37.7" y1="36.1" x2="-22.9" y2="36.1"/>
	<line class="st4" x1="-37.7" y1="38.5" x2="-22.9" y2="38.5"/>
	<line class="st4" x1="-37.7" y1="43.6" x2="-22.9" y2="43.6"/>
	<line class="st4" x1="-37.7" y1="46.1" x2="-22.9" y2="46.1"/>
	<path class="st1" d="M-41.4,18.3c3,0,5.5,2.5,5.5,5.5s-2.5,5.5-5.5,5.5s-5.5-2.5-5.5-5.5S-44.5,18.3-41.4,18.3 M-41.4,17.3
		c-3.6,0-6.5,2.9-6.5,6.5s2.9,6.5,6.5,6.5c3.6,0,6.5-2.9,6.5-6.5S-37.9,17.3-41.4,17.3L-41.4,17.3z"/>
	<polyline class="st5" points="-41.4,19.7 -41.4,23.8 -37.3,23.8 	"/>
	<polygon class="st1" points="-23,54.9 -23,49.7 -17.8,49.7 	"/>
</g>
<g class="st0">
	<circle class="st1" cx="-34.8" cy="32.2" r="32"/>
	<polyline class="st1" points="-16.1,51.4 -16.1,11.3 -50.1,11.3 -50.1,56.6 -21.3,56.6 -21.3,56.6 -16.1,51.4 	"/>
	<polygon class="st1" points="-23,54.9 -51.8,54.9 -51.8,9.5 -17.8,9.5 -17.8,49.7 	"/>
	<polygon class="st1" points="-41.2,34.4 -44.4,38.3 -45.8,37 -46.7,37.9 -44.3,40.2 -40.2,35.2 	"/>
	<polygon class="st1" points="-41.2,42 -44.4,45.9 -45.8,44.6 -46.7,45.5 -44.3,47.8 -40.2,42.8 	"/>
	<line class="st6" x1="-31.5" y1="27" x2="-31.5" y2="29.2"/>
	<line class="st3" x1="-29.5" y1="21.7" x2="-29.5" y2="29.2"/>
	<line class="st6" x1="-27.5" y1="17.8" x2="-27.5" y2="29.2"/>
	<line class="st3" x1="-25.5" y1="21.4" x2="-25.5" y2="29.2"/>
	<line class="st6" x1="-23.5" y1="25.1" x2="-23.5" y2="29.2"/>
	<line class="st4" x1="-37.7" y1="36.1" x2="-22.9" y2="36.1"/>
	<line class="st4" x1="-37.7" y1="38.5" x2="-22.9" y2="38.5"/>
	<line class="st4" x1="-37.7" y1="43.6" x2="-22.9" y2="43.6"/>
	<line class="st4" x1="-37.7" y1="46.1" x2="-22.9" y2="46.1"/>
	<path class="st1" d="M-41.4,18.3c3,0,5.5,2.5,5.5,5.5s-2.5,5.5-5.5,5.5s-5.5-2.5-5.5-5.5S-44.5,18.3-41.4,18.3 M-41.4,17.3
		c-3.6,0-6.5,2.9-6.5,6.5s2.9,6.5,6.5,6.5c3.6,0,6.5-2.9,6.5-6.5S-37.9,17.3-41.4,17.3L-41.4,17.3z"/>
	<polyline class="st7" points="-41.4,19.7 -41.4,23.8 -37.3,23.8 	"/>
	<polygon class="st1" points="-23,54.9 -23,49.7 -17.8,49.7 	"/>
</g>
<g class="st0">
	<polygon class="st1" points="-29.8,64.3 -70.4,64.3 -70.4,0.3 -22.4,0.3 -22.4,56.9 	"/>
	<polygon class="st1" points="-55.5,35.3 -60,40.8 -61.9,39 -63.2,40.3 -59.9,43.6 -54.1,36.5 	"/>
	<polygon class="st1" points="-55.5,46 -60,51.5 -61.9,49.7 -63.2,51 -59.9,54.3 -54.1,47.2 	"/>
	<rect x="-50.6" y="37" class="st1" width="20.9" height="1.4"/>
	<rect x="-50.6" y="40.5" class="st1" width="20.9" height="1.4"/>
	<rect x="-50.6" y="47.7" class="st1" width="20.9" height="1.4"/>
	<rect x="-50.6" y="51.2" class="st1" width="20.9" height="1.4"/>
	<rect x="-42.4" y="23.2" class="st1" width="1.4" height="3.2"/>
	<rect x="-39.6" y="15.8" class="st1" width="1.4" height="10.7"/>
	<rect x="-36.8" y="10.3" class="st1" width="1.4" height="16.1"/>
	<rect x="-34" y="15.4" class="st1" width="1.4" height="11"/>
	<rect x="-31.1" y="20.6" class="st1" width="1.4" height="5.8"/>
	<path class="st1" d="M-55.8,11.1c4.3,0,7.7,3.5,7.7,7.7s-3.5,7.7-7.7,7.7s-7.7-3.5-7.7-7.7S-60.1,11.1-55.8,11.1 M-55.8,9.7
		c-5.1,0-9.1,4.1-9.1,9.1s4.1,9.1,9.1,9.1s9.1-4.1,9.1-9.1S-50.7,9.7-55.8,9.7L-55.8,9.7z"/>
	<polygon class="st1" points="-50,19.5 -56.5,19.5 -56.5,13 -55.1,13 -55.1,18.1 -50,18.1 	"/>
	<polygon class="st1" points="-29.8,64.3 -29.8,56.9 -22.4,56.9 	"/>
</g>
<g class="st0">
	<g class="st1">
		<path d="M-12.2,1.6v54.7l-6.5,6.5h-38.7V1.6H-12.2 M-10.8,0.2h-48v64h40.7l7.3-7.3V0.2L-10.8,0.2z"/>
	</g>
	<polyline class="st8" points="-18.6,63.8 -18.6,56.4 -11.3,56.4 	"/>
	<g class="st1">
		<polygon points="-43.9,35.3 -48.4,40.8 -50.3,39 -51.6,40.3 -48.3,43.5 -42.5,36.5 		"/>
	</g>
	<g class="st1">
		<polygon points="-43.9,46 -48.4,51.5 -50.3,49.7 -51.6,51 -48.3,54.2 -42.5,47.2 		"/>
	</g>
	<line class="st8" x1="-38.9" y1="37.7" x2="-18" y2="37.7"/>
	<line class="st8" x1="-38.9" y1="41.2" x2="-18" y2="41.2"/>
	<line class="st8" x1="-38.9" y1="48.4" x2="-18" y2="48.4"/>
	<line class="st8" x1="-38.9" y1="51.9" x2="-18" y2="51.9"/>
	<line class="st8" x1="-30.1" y1="24.2" x2="-30.1" y2="27.4"/>
	<line class="st8" x1="-27.3" y1="16.7" x2="-27.3" y2="27.4"/>
	<line class="st8" x1="-24.5" y1="11.3" x2="-24.5" y2="27.4"/>
	<line class="st8" x1="-21.6" y1="16.4" x2="-21.6" y2="27.4"/>
	<line class="st8" x1="-18.8" y1="21.6" x2="-18.8" y2="27.4"/>
	<path class="st8" d="M-44.2,11.6c4.3,0,7.7,3.5,7.7,7.7s-3.5,7.7-7.7,7.7s-7.7-3.5-7.7-7.7S-48.4,11.6-44.2,11.6"/>
	<polyline class="st8" points="-44.2,13.6 -44.2,19.4 -38.4,19.4 	"/>
</g>
<g>
	<path d="M10.7,40.1l-1.9-1.8l-1.9,2.1l4,3.9l6.4-7.8l-2.1-1.9L10.7,40.1z M15.9,36.6l-5.1,6.2l-2.6-2.5l0.6-0.6l1.9,1.9l4.5-5.5
		L15.9,36.6z"/>
	<path d="M10.7,50.8L8.8,49l-1.9,2.1l4,3.9l6.4-7.8l-2.1-1.9L10.7,50.8z M15.9,47.3l-5.1,6.2L8.2,51l0.6-0.6l1.9,1.9l4.5-5.5
		L15.9,47.3z"/>
	<rect x="20.2" y="37.2" width="20.9" height="1"/>
	<rect x="20.2" y="40.7" width="20.9" height="1"/>
	<rect x="20.2" y="47.9" width="20.9" height="1"/>
	<rect x="20.2" y="51.4" width="20.9" height="1"/>
	<rect x="28.5" y="24.2" width="1" height="3.2"/>
	<rect x="31.3" y="16.7" width="1" height="10.7"/>
	<rect x="34.2" y="11.3" width="1" height="16.1"/>
	<rect x="37" y="16.4" width="1" height="11"/>
	<rect x="39.8" y="21.6" width="1" height="5.8"/>
	<path d="M14.9,27.6c4.5,0,8.2-3.7,8.2-8.2c0-4.5-3.7-8.2-8.2-8.2s-8.2,3.7-8.2,8.2C6.7,23.9,10.4,27.6,14.9,27.6z M14.9,12.2
		c4,0,7.2,3.2,7.2,7.2c0,4-3.2,7.2-7.2,7.2s-7.2-3.2-7.2-7.2C7.7,15.4,10.9,12.2,14.9,12.2z"/>
	<polygon points="20.8,18.9 15.4,18.9 15.4,13.6 14.4,13.6 14.4,19.9 20.8,19.9 	"/>
	<path d="M48.6,56.9V0H0v64.5h41.1L48.6,56.9z M41.2,62.9v-5.8H47L41.2,62.9z M1,1h46.6v55.1h-7.4v7.4H1V1z"/>
</g>
<g class="st0">
	<circle class="st1" cx="-34.8" cy="32.2" r="32"/>
	<polygon class="st1" points="-58.1,1 -11.3,1 -11.3,56.3 -19.3,63.8 -58.1,63.8 	"/>
	<polygon class="st1" points="-18.5,56.4 -18.4,60.8 -55.4,60.8 -55.4,3.6 -14.2,3.6 -14.2,56.4 	"/>
	<path class="st1" d="M-12.2,1.6v54.7l-6.5,6.5h-38.7V1.6H-12.2 M-10.8,0.2h-48v64h40.7l7.3-7.3V0.2L-10.8,0.2z"/>
	<polygon class="st1" points="-17.9,63.8 -19.3,63.8 -19.3,55.7 -11.3,55.7 -11.3,57.1 -17.9,57.1 	"/>
	<polygon class="st1" points="-43.9,35.3 -48.4,40.8 -50.3,39 -51.6,40.3 -48.3,43.5 -42.5,36.5 	"/>
	<polygon class="st1" points="-43.9,46 -48.4,51.5 -50.3,49.7 -51.6,51 -48.3,54.2 -42.5,47.2 	"/>
	<rect x="-38.9" y="37" class="st1" width="20.9" height="1.4"/>
	<rect x="-38.9" y="40.5" class="st1" width="20.9" height="1.4"/>
	<rect x="-38.9" y="47.7" class="st1" width="20.9" height="1.4"/>
	<rect x="-38.9" y="51.2" class="st1" width="20.9" height="1.4"/>
	<rect x="-30.8" y="24.2" class="st1" width="1.4" height="3.2"/>
	<rect x="-28" y="16.7" class="st1" width="1.4" height="10.7"/>
	<rect x="-25.2" y="11.3" class="st1" width="1.4" height="16.1"/>
	<rect x="-22.3" y="16.4" class="st1" width="1.4" height="11"/>
	<rect x="-19.5" y="21.6" class="st1" width="1.4" height="5.8"/>
	<path class="st1" d="M-44.2,27.8c-4.7,0-8.4-3.8-8.4-8.4s3.8-8.4,8.4-8.4c4.7,0,8.4,3.8,8.4,8.4S-39.5,27.8-44.2,27.8z M-44.2,12.4
		c-3.9,0-7,3.2-7,7c0,3.9,3.2,7,7,7s7-3.2,7-7C-37.1,15.5-40.3,12.4-44.2,12.4z"/>
	<polygon class="st1" points="-38.4,20.1 -44.9,20.1 -44.9,13.6 -43.5,13.6 -43.5,18.7 -38.4,18.7 	"/>
</g>
</svg>
